<?xml version="1.0" encoding="UTF-8"?>
<svg id="Layer_1" xmlns="http://www.w3.org/2000/svg" version="1.1" viewBox="0 0 546.7 172.4">
  <!-- Generator: Adobe Illustrator 29.1.0, SVG Export Plug-In . SVG Version: 2.1.0 Build 142)  -->
  <defs>
    <style>
      .st0 {
        fill: #ffdb33;
      }

      .st1 {
        fill: #ef9ec4;
      }

      .st2 {
        fill: #f59b24;
      }

      .st3 {
        fill: #ec6643;
      }

      .st4 {
        fill: #313131;
      }

      .st5 {
        fill: #fcd7b8;
      }
    </style>
  </defs>
  <g id="_Radial_Repeat_">
    <path class="st1" d="M187.6,58.2c-7.9,2.6-12.4,10.2-9.9,18.1l1.4,4.4,7.3-2.4-.7-2c-1.3-3.9.9-8.2,4.8-9.4l14.6-4.8-2.8-8.6-14.8,4.9h0Z"/>
    <circle class="st1" cx="194" cy="74.7" r="6.4"/>
  </g>
  <g id="_Radial_Repeat_-2">
    <path class="st3" d="M156.1,58.5c0,8.3,5.9,15,14.1,15h4.6s0-7.7,0-7.7h-2.1c-4.1,0-7.5-3.3-7.5-7.5v-15.4s-9.1,0-9.1,0c0,0,0,15.6,0,15.6Z"/>
    <circle class="st3" cx="173.8" cy="57.4" r="6.4"/>
  </g>
  <g id="_Radial_Repeat_-3">
    <path class="st5" d="M146.7,88.5c7.9,2.5,16-.9,18.6-8.8l1.4-4.4-7.3-2.4-.7,2c-1.3,3.9-5.5,6.1-9.4,4.8l-14.6-4.7-2.8,8.6s14.9,4.8,14.9,4.8Z"/>
    <circle class="st5" cx="151.2" cy="71.4" r="6.4"/>
  </g>
  <g id="_Radial_Repeat_-4">
    <path class="st0" d="M172.3,106.7c4.8-6.7,4.1-15.5-2.6-20.4l-3.7-2.7-4.5,6.3,1.7,1.3c3.4,2.4,4.1,7.1,1.7,10.5l-9,12.5,7.4,5.3,9.2-12.7h0Z"/>
    <circle class="st0" cx="157.4" cy="97.2" r="6.4"/>
  </g>
  <g id="_Radial_Repeat_-5">
    <path class="st2" d="M197.6,88c-4.9-6.7-13.5-8.7-20.2-3.8l-3.7,2.7,4.5,6.2,1.7-1.3c3.3-2.4,8-1.7,10.5,1.6l9.1,12.4,7.3-5.4-9.2-12.6h0Z"/>
    <circle class="st2" cx="183.9" cy="99.2" r="6.4"/>
  </g>
  <path class="st4" d="M216.2,79.9v-16.7h9.7v16.4c0,4.4,3.6,8,8,8h2.3v8.2h-4.9c-8.8,0-15-7.2-15-16h0Z"/>
  <path class="st4" d="M239.2,95.9v-32.6h22v7.6h-12.5v4.7h9.7v7.5h-9.7v5.2h12.5v7.6h-22,0Z"/>
  <path class="st4" d="M384.9,95.9v-32.6h22v7.6h-12.5v4.7h9.7v7.5h-9.7v5.2h12.5v7.6h-22,0Z"/>
  <path class="st4" d="M284.5,96.1h-9.4l-11.4-32.8h10.4l5.9,18.8,5.9-18.8h9.9l-11.4,32.8Z"/>
  <path class="st4" d="M301.5,63.1h10.8l11.2,32.8h-10.3l-1.8-5.5h-10.3l-1.6,5.5h-9.4s11.3-32.8,11.3-32.8ZM303.3,83.1h6l-2.9-10.3-3.1,10.3h0Z"/>
  <path class="st4" d="M374,71.3v24.6h-9.7v-24.6h-7.8v-8h25.3v8h-7.8Z"/>
  <path class="st4" d="M345,95.8l-10.6-16.9v16.9h-8.9v-32.3h9.5l9.6,15.5v-15.5h8.9v32.3h-8.5,0Z"/>
  <path class="st4" d="M277.3,108.8h1.6l2.8,7.6-1.5.3-.7-2h-2.9l-.7,2h-1.5l2.9-7.8h0ZM276.9,113.3h2.1l-1-3-1.1,3Z"/>
  <path class="st4" d="M288.9,116.5l-3.6-5.3v5.3h-1.4v-7.7h1.4l3.5,5.1v-5.1h1.4v7.7h-1.2,0Z"/>
  <path class="st4" d="M296.4,116.5v-7.7h1.5v7.7h-1.5Z"/>
  <path class="st4" d="M305.7,116.5l-3.6-5.3v5.3h-1.4v-7.7h1.4l3.5,5.1v-5.1h1.4v7.7h-1.2,0Z"/>
  <path class="st4" d="M309.8,116.5v-7.7h1.5v7.7h-1.5Z"/>
  <path class="st4" d="M317.4,110.1v6.4h-1.5v-6.4h-2.3v-1.3h6l.2,1.3h-2.4,0Z"/>
  <path class="st4" d="M322,116.5v-7.7h1.5v7.7h-1.5Z"/>
  <path class="st4" d="M328.6,108.8h1.6l2.8,7.6-1.5.3-.7-2h-2.9l-.7,2h-1.5l2.9-7.8h0ZM328.3,113.3h2.1l-1-3-1.1,3Z"/>
  <path class="st4" d="M337.6,110.1v6.4h-1.5v-6.4h-2.3v-1.3h6l.2,1.3h-2.4,0Z"/>
  <path class="st4" d="M342.2,116.5v-7.7h1.5v7.7h-1.5Z"/>
  <path class="st4" d="M350.3,116.6h-1.5l-2.8-7.6,1.6-.3,2.1,5.9,2-5.8h1.6l-2.9,7.8h0Z"/>
  <path class="st4" d="M355.3,116.5v-7.7h4.5v1.3h-3v1.8h2.3l.2,1.2h-2.5v2.1h3.1v1.3h-4.6Z"/>
  <path class="st4" d="M369.1,116.7c-2.2,0-3.6-1.6-3.6-4s1.4-4,3.6-4,3.6,1.6,3.6,4-1.4,4-3.6,4ZM369.1,109.9c-1.3,0-2.1,1.1-2.1,2.8s.8,2.8,2.1,2.8,2.1-1.1,2.1-2.8-.8-2.8-2.1-2.8Z"/>
  <path class="st4" d="M376.7,110.1v2h2.2l.2,1.3h-2.4v3.2h-1.5v-7.7h4.3v1.3h-2.8Z"/>
  <path class="st4" d="M388.6,110.1v6.4h-1.5v-6.4h-2.3v-1.3h6l.2,1.3h-2.4,0Z"/>
  <path class="st4" d="M398,116.5v-3.4h-3.3v3.4h-1.5v-7.7h1.5v3.1h3.3v-3.1h1.5v7.7h-1.5Z"/>
  <path class="st4" d="M402.2,116.5v-7.7h4.5v1.3h-3v1.8h2.3l.2,1.2h-2.5v2.1h3.1v1.3h-4.6,0Z"/>
  <path class="st4" d="M279.5,129.5c-.3,0-.7,0-.9,0l-.2-1.3c.2,0,.5.1.9.1.7,0,1.1-.3,1.1-1.1v-5.4h1.5v5.6c0,1.6-1,2.2-2.4,2.2Z"/>
  <path class="st4" d="M286.7,121.7h1.6l2.8,7.6-1.5.3-.7-2h-2.9l-.7,2h-1.5l2.9-7.8h0ZM286.3,126.3h2.1l-1-3-1.1,3Z"/>
  <path class="st4" d="M296.3,129.6c-2.2,0-3.7-1.6-3.7-4s1.4-4,3.7-4,1.5.2,2.1.6l-.2,1.4c-.5-.4-1.1-.7-1.8-.7-1.4,0-2.2,1.1-2.2,2.7s.9,2.7,2.3,2.7,1.4-.3,2-.7l.2,1.3c-.6.4-1.4.7-2.3.7h0Z"/>
  <path class="st4" d="M304,129.6c-2.2,0-3.6-1.6-3.6-4s1.4-4,3.6-4,3.6,1.6,3.6,4-1.4,4-3.6,4ZM304,122.8c-1.3,0-2.1,1.1-2.1,2.8s.8,2.8,2.1,2.8,2.1-1.1,2.1-2.8-.8-2.8-2.1-2.8Z"/>
  <path class="st4" d="M312.3,129.4h-2.2v-7.7h2.3c1.7,0,2.6.8,2.6,2s-.4,1.3-1.1,1.6c.9.3,1.4.8,1.4,1.9,0,1.5-1.1,2.2-2.9,2.2h0ZM312.3,122.8h-.7v2h.7c.9,0,1.3-.4,1.3-1.1s-.4-1-1.3-1h0ZM312.3,125.9h-.8v2.4h.8c.9,0,1.5-.4,1.5-1.2s-.5-1.2-1.5-1.2h0Z"/>
  <path class="st4" d="M319.7,129.5c-.9,0-1.7-.2-2.4-.5l.2-1.4c.6.4,1.5.7,2.2.7s1.2-.3,1.2-.9-.3-.8-1.4-1.3c-1.5-.6-2.1-1.1-2.1-2.3s1.1-2.2,2.5-2.2,1.5.2,2,.5l-.2,1.3c-.6-.4-1.2-.6-1.8-.6s-1.1.4-1.1.8.2.7,1.3,1.2c1.6.6,2.2,1.2,2.2,2.4s-1.1,2.3-2.6,2.3h0Z"/>
  <path class="st4" d="M329.7,123v2h2.2l.2,1.3h-2.4v3.2h-1.5v-7.7h4.3v1.3h-2.8Z"/>
  <path class="st4" d="M338,129.6c-2.2,0-3.6-1.6-3.6-4s1.4-4,3.6-4,3.6,1.6,3.6,4-1.4,4-3.6,4ZM338,122.8c-1.3,0-2.1,1.1-2.1,2.8s.8,2.8,2.1,2.8,2.1-1.1,2.1-2.8-.8-2.8-2.1-2.8Z"/>
  <path class="st4" d="M347.1,129.6c-1.9,0-3.1-1.1-3.1-3.1v-4.7h1.5v4.7c0,1.2.5,1.9,1.6,1.9s1.6-.7,1.6-1.9v-4.7h1.5v4.7c0,2-1.3,3.2-3.1,3.2h0Z"/>
  <path class="st4" d="M358,129.4l-3.6-5.3v5.3h-1.4v-7.7h1.4l3.5,5.1v-5.1h1.4v7.7h-1.2,0Z"/>
  <path class="st4" d="M364.4,129.4h-2.5v-7.7h2.5c2.7,0,4.1,1.6,4.1,3.9s-1.4,3.9-4.1,3.9ZM364.4,122.9h-1v5.3h.9c1.6,0,2.6-.8,2.6-2.6s-1-2.6-2.6-2.6h0Z"/>
  <path class="st4" d="M372.9,121.7h1.6l2.8,7.6-1.5.3-.7-2h-2.9l-.7,2h-1.5l2.9-7.8h0ZM372.6,126.3h2.1l-1-3-1.1,3Z"/>
  <path class="st4" d="M381.8,123v6.4h-1.5v-6.4h-2.3v-1.3h6l.2,1.3h-2.4,0Z"/>
  <path class="st4" d="M386.5,129.4v-7.7h1.5v7.7h-1.5Z"/>
  <path class="st4" d="M394.1,129.6c-2.2,0-3.6-1.6-3.6-4s1.4-4,3.6-4,3.6,1.6,3.6,4-1.4,4-3.6,4ZM394.1,122.8c-1.3,0-2.1,1.1-2.1,2.8s.8,2.8,2.1,2.8,2.1-1.1,2.1-2.8-.8-2.8-2.1-2.8Z"/>
  <path class="st4" d="M405.2,129.4l-3.6-5.3v5.3h-1.4v-7.7h1.4l3.5,5.1v-5.1h1.4v7.7h-1.2,0Z"/>
</svg>